<?xml version="1.0" standalone="no"?>
<!DOCTYPE svg PUBLIC "-//W3C//DTD SVG 20010904//EN"
 "http://www.w3.org/TR/2001/REC-SVG-20010904/DTD/svg10.dtd">
<svg version="1.0" xmlns="http://www.w3.org/2000/svg"
 width="120.000000pt" height="106.000000pt" viewBox="0 0 120.000000 106.000000"
 preserveAspectRatio="xMidYMid meet">
<metadata>
Created by potrace 1.15, written by Peter Selinger 2001-2017
</metadata>
<g transform="translate(0.000000,106.000000) scale(0.100000,-0.100000)"
fill="#000000" stroke="none">
<path d="M854 754 c5 -14 4 -15 -9 -4 -30 25 -27 1 5 -39 40 -49 35 -74 -12
-69 l-33 3 3 -56 c2 -30 4 -64 5 -74 1 -10 -4 -20 -10 -22 -9 -3 -13 8 -13 35
0 32 -4 42 -20 47 -11 3 -20 13 -20 21 0 13 -2 14 -14 1 -8 -8 -16 -38 -18
-68 -3 -48 -6 -54 -27 -57 -28 -4 -95 -68 -86 -82 3 -6 0 -11 -7 -12 -25 -2
-33 -4 -55 -12 -63 -21 15 -36 126 -25 96 10 155 -5 178 -48 13 -24 27 -35 50
-39 18 -3 33 -12 33 -20 0 -26 35 -69 59 -72 33 -3 63 19 85 64 10 22 27 55
37 75 18 35 18 37 0 86 -10 28 -30 66 -43 85 -32 44 -49 97 -41 128 5 21 3 23
-8 13 -20 -20 -29 -16 -29 13 0 20 -4 25 -16 20 -10 -4 -15 0 -13 12 3 30 -1
37 -12 22 -9 -13 -10 -12 -5 3 7 22 -3 47 -18 47 -6 0 -17 9 -24 20 -15 25
-57 28 -48 4z m31 -235 c10 -30 2 -32 -12 -3 -6 13 -7 24 -3 24 5 0 12 -9 15
-21z m22 -81 c-3 -7 -5 -2 -5 12 0 14 2 19 5 13 2 -7 2 -19 0 -25z M312 743
c-7 -3 -17 -13 -22 -24 -9 -16 -7 -19 9 -19 11 0 23 9 26 21 8 24 5 28 -13 22z
M503 698 c-25 -32 -23 -38 13 -53 50 -21 113 -20 121 2 16 40 -106 86 -134 51z
M170 640 c0 -5 -6 -7 -14 -4 -18 7 -48 -24 -42 -45 3 -9 8 -38 12 -66 8 -65
42 -102 100 -111 24 -3 44 -10 44 -15 0 -11 48 -31 62 -27 5 2 -10 24 -34 48
-36 38 -42 50 -38 75 3 17 13 42 23 56 16 24 16 29 2 62 -15 36 -17 37 -65 37
-28 0 -50 -4 -50 -10z M364 363 c11 -3 26 -12 34 -20 8 -8 21 -12 29 -9 8 3
20 6 26 7 25 2 -50 28 -78 27 -20 0 -23 -2 -11 -5z"/>
</g>
</svg>
